<svg xmlns="http://www.w3.org/2000/svg" viewBox="0 0 640 460" role="img" aria-labelledby="radar-title" preserveAspectRatio="xMidYMid meet">
  <title id="radar-title">Engagement contexts across the four axes</title>

  <!-- Concentric grid circles (0.2, 0.4, 0.6, 0.8, 1.0) -->
  <g stroke="#2A2620" fill="none" stroke-width="1" stroke-dasharray="2 3">
    <circle cx="320" cy="220" r="26"/>
    <circle cx="320" cy="220" r="52"/>
    <circle cx="320" cy="220" r="78"/>
    <circle cx="320" cy="220" r="104"/>
    <circle cx="320" cy="220" r="130"/>
  </g>

  <!-- Axis lines -->
  <g stroke="#8F8875" stroke-width="1" fill="none">
    <line x1="320" y1="220" x2="320" y2="90"/>
    <line x1="320" y1="220" x2="450" y2="220"/>
    <line x1="320" y1="220" x2="320" y2="350"/>
    <line x1="320" y1="220" x2="190" y2="220"/>
  </g>

  <!-- Axis labels -->
  <g font-family="JetBrains Mono, ui-monospace, monospace" font-size="12" fill="#F2F4EA" font-weight="700">
    <text x="320" y="78" text-anchor="middle">TIME</text>
    <text x="460" y="222" text-anchor="start">COVERAGE</text>
    <text x="320" y="370" text-anchor="middle">STEALTH</text>
    <text x="180" y="222" text-anchor="end">DEPTH</text>
  </g>
  <g font-family="Zen Kaku Gothic New, sans-serif" font-size="9" fill="#8F8875">
    <text x="320" y="90" text-anchor="middle">available</text>
    <text x="460" y="236" text-anchor="start">needed</text>
    <text x="320" y="382" text-anchor="middle">required</text>
    <text x="180" y="236" text-anchor="end">needed</text>
  </g>

  <!-- Grid scale markers on top axis -->
  <g font-family="JetBrains Mono, ui-monospace, monospace" font-size="8" fill="#615C50" text-anchor="start">
    <text x="324" y="199">0.2</text>
    <text x="324" y="173">0.4</text>
    <text x="324" y="147">0.6</text>
    <text x="324" y="121">0.8</text>
    <text x="324" y="95">1.0</text>
  </g>

  <!-- CTF: T=0.15, C=0.5, S=0.05, D=0.85 -->
  <polygon points="320,200.5 385,220 320,226.5 209.5,220"
           fill="#48B44A" fill-opacity="0.16" stroke="#48B44A" stroke-width="1.8"/>
  <g fill="#48B44A">
    <circle cx="320" cy="200.5" r="3"/>
    <circle cx="385" cy="220" r="3"/>
    <circle cx="320" cy="226.5" r="3"/>
    <circle cx="209.5" cy="220" r="3"/>
  </g>

  <!-- Standard pentest: T=0.5, C=0.85, S=0.4, D=0.65 -->
  <polygon points="320,155 430.5,220 320,272 235.5,220"
           fill="#D9DCCF" fill-opacity="0.12" stroke="#D9DCCF" stroke-width="1.8"/>
  <g fill="#D9DCCF">
    <circle cx="320" cy="155" r="3"/>
    <circle cx="430.5" cy="220" r="3"/>
    <circle cx="320" cy="272" r="3"/>
    <circle cx="235.5" cy="220" r="3"/>
  </g>

  <!-- Red team: T=0.95, C=0.55, S=0.95, D=0.5 -->
  <polygon points="320,96.5 391.5,220 320,343.5 255,220"
           fill="#E5533B" fill-opacity="0.12" stroke="#E5533B" stroke-width="1.8"/>
  <g fill="#E5533B">
    <circle cx="320" cy="96.5" r="3"/>
    <circle cx="391.5" cy="220" r="3"/>
    <circle cx="320" cy="343.5" r="3"/>
    <circle cx="255" cy="220" r="3"/>
  </g>

  <!-- Bug bounty: T=0.35, C=0.8, S=0.2, D=0.4 -->
  <polygon points="320,174.5 424,220 320,246 268,220"
           fill="#E5A03B" fill-opacity="0.12" stroke="#E5A03B" stroke-width="1.8"/>
  <g fill="#E5A03B">
    <circle cx="320" cy="174.5" r="3"/>
    <circle cx="424" cy="220" r="3"/>
    <circle cx="320" cy="246" r="3"/>
    <circle cx="268" cy="220" r="3"/>
  </g>

  <!-- Legend -->
  <g font-family="JetBrains Mono, ui-monospace, monospace" font-size="11" fill="#D9DCCF">
    <rect x="60"  y="418" width="14" height="14" fill="#48B44A" fill-opacity="0.4" stroke="#48B44A" stroke-width="1.5"/>
    <text x="80" y="430">CTF</text>

    <rect x="145" y="418" width="14" height="14" fill="#D9DCCF" fill-opacity="0.35" stroke="#D9DCCF" stroke-width="1.5"/>
    <text x="165" y="430">Standard pentest</text>

    <rect x="310" y="418" width="14" height="14" fill="#E5533B" fill-opacity="0.35" stroke="#E5533B" stroke-width="1.5"/>
    <text x="330" y="430">Red team</text>

    <rect x="435" y="418" width="14" height="14" fill="#E5A03B" fill-opacity="0.35" stroke="#E5A03B" stroke-width="1.5"/>
    <text x="455" y="430">Bug bounty</text>
  </g>
</svg>
